<svg width="657" height="1280" viewBox="0 0 657 1280" fill="none" xmlns="http://www.w3.org/2000/svg">
<path d="M532.7 173.4L492 214.8V363.3V511.9L532.7 551.4L573.4 590.8L606.3 558.7C624.4 541 642.7 523.1 647 519L654.9 511.5L655.5 364.3L656.2 217.2L615.5 174.6C593.2 151.2 574.5 132 574.1 132C573.7 132 555 150.6 532.7 173.4Z" fill="black"/>
<path d="M532.7 731.2L492.1 772.5L492 921.2V1069.9L532.1 1108.7C554.1 1130 572.7 1147.5 573.4 1147.5C574.1 1147.5 592.7 1129.9 614.8 1108.5L654.9 1069.5L655 1015.4C655 985.7 655.3 919.5 655.7 868.3L656.3 775.3L615.6 732.6C593.2 709.2 574.5 690 574.1 690C573.6 690 555 708.6 532.7 731.2Z" fill="black"/>
</svg>
