<svg width="656" height="1280" viewBox="0 0 656 1280" fill="none" xmlns="http://www.w3.org/2000/svg">
<path d="M532.457 174L491.775 215.4V363.9V512.5L532.457 552L573.138 591.4L606.023 559.3C624.115 541.6 642.407 523.7 646.705 519.6L654.601 512.1L655.201 364.9L655.9 217.8L615.219 175.2C592.929 151.8 574.238 132.6 573.838 132.6C573.438 132.6 554.747 151.2 532.457 174Z" fill="black"/>
<path d="M532.457 731.8L491.875 773.1L491.775 921.8V1070.5L531.857 1109.3C553.847 1130.6 572.439 1148.1 573.138 1148.1C573.838 1148.1 592.429 1130.5 614.519 1109.1L654.601 1070.1L654.701 1016C654.701 986.3 655.001 920.1 655.401 868.9L656 775.9L615.319 733.2C592.929 709.8 574.238 690.6 573.838 690.6C573.338 690.6 554.747 709.2 532.457 731.8Z" fill="black"/>
<path d="M40.7814 173L0 214.1V362.6V511.1L40.7814 550.7L81.6627 590.4L122.744 550.3L163.925 510.3V363.2L163.825 216.1L123.843 174.1C101.853 151 83.2619 132 82.6622 132C81.9625 131.9 63.1711 150.4 40.7814 173Z" fill="black"/>
<path d="M138.137 598.2C116.547 620.6 98.9551 639.2 99.155 639.6C99.3549 640.1 117.147 658.7 138.837 681L178.219 721.6H325.252L472.284 721.5L503.37 691.8C520.462 675.5 539.554 657.2 545.751 651.3L557.146 640.5L515.665 599L474.283 557.6H325.851H177.419L138.137 598.2Z" fill="black"/>
</svg>
