<svg width="656" height="1278" viewBox="0 0 656 1278" fill="none" xmlns="http://www.w3.org/2000/svg">
<path d="M136.8 40.4364C115.4 62.6017 97.7998 81.1726 97.7998 81.6718C97.7998 82.0712 115.6 100.742 137.3 123.007L176.8 163.544L324 163.644H471.1L513.9 123.007L556.6 82.3707L514.7 41.1353L472.8 -0.000335932H324.3H175.8L136.8 40.4364Z" fill="black"/>
<path d="M532 173.029L491.3 214.364V362.632V511L532 550.438L572.7 589.777L605.6 557.727C623.7 540.055 642 522.183 646.3 518.089L654.2 510.601L654.8 363.631L655.5 216.761L614.8 174.227C592.5 150.864 573.8 131.694 573.4 131.694C573 131.694 554.3 150.265 532 173.029Z" fill="black"/>
<path d="M136.8 597.465C115.4 619.73 97.7998 638.201 97.7998 638.7C97.7998 639.199 115.6 657.77 137.3 680.135L176.8 720.672L323.9 720.772H471L513.8 680.135L556.6 639.499L514.7 598.263L472.8 557.128H324.3H175.8L136.8 597.465Z" fill="black"/>
<path d="M532 729.958L491.4 771.193L491.3 919.661V1068.13L531.4 1106.87C553.4 1128.13 572 1145.61 572.7 1145.61C573.4 1145.61 592 1128.03 614.1 1106.67L654.2 1067.73L654.3 1013.71C654.3 984.06 654.6 917.963 655 866.843L655.6 773.989L614.9 731.355C592.5 707.992 573.8 688.822 573.4 688.822C572.9 688.822 554.3 707.393 532 729.958Z" fill="black"/>
<path d="M145.8 1145.21C129.3 1162.28 111.6 1180.65 106.4 1186.14L97 1196.13L114.9 1214.3C124.8 1224.28 142.9 1242.66 155.1 1255.24L177.3 1277.9H324.1H471L513.8 1237.26L556.6 1196.53L514.7 1155.39L472.8 1114.16L324.3 1114.26H175.8L145.8 1145.21Z" fill="black"/>
</svg>
