<svg width="656" height="1280" viewBox="0 0 656 1280" fill="none" xmlns="http://www.w3.org/2000/svg">
<path d="M138.5 40.4C117.1 62.6 99.5 81.2 99.5 81.8C99.5 82.4 117.2 101.1 138.9 123.4L178.3 164H325.4L472.5 163.9L514.5 123.9C537.6 101.8 556.6 83.5 556.8 83.1C556.9 82.7 538.4 63.9 515.7 41.2L474.3 -2.44379e-06H325.9H177.5L138.5 40.4Z" fill="black"/>
<path d="M532.8 173.4L492 214.6V363.1V511.5L532.8 551.2L573.7 590.8L614.8 550.8L656 510.7V363.6L655.9 216.5L615.9 174.5C593.9 151.4 575.3 132.4 574.7 132.4C574 132.3 555.2 150.8 532.8 173.4Z" fill="black"/>
<path d="M40.8 173.4L0 214.6V363.1V511.5L40.8 551.2L81.7 590.8L122.8 550.8L164 510.7V363.6L163.9 216.5L123.9 174.5C101.9 151.4 83.3 132.4 82.7 132.4C82 132.3 63.2 150.8 40.8 173.4Z" fill="black"/>
<path d="M41.3 731L0 772.7V921.1V1069.5L40.1 1108.4C62.1 1129.8 80.8 1147.3 81.5 1147.4C82.2 1147.4 101.1 1129.8 123.4 1108.1L164 1068.7V921.6L163.9 774.5L124.4 733C102.7 710.2 84.3 691 83.7 690.4C82.8 689.6 71.9 700 41.3 731Z" fill="black"/>
<path d="M533.3 731L492 772.7V921.1V1069.5L532.1 1108.4C554.1 1129.8 572.8 1147.3 573.5 1147.4C574.2 1147.4 593.1 1129.8 615.4 1108.1L656 1068.7V921.6L655.9 774.5L616.4 733C594.7 710.2 576.3 691 575.7 690.4C574.8 689.6 563.9 700 533.3 731Z" fill="black"/>
<path d="M138.2 1156.6C116.6 1178.9 98.9999 1197.6 99.1999 1198C99.3999 1198.4 117.2 1217.1 138.9 1239.4L178.4 1280H325.4L472.5 1279.9L505 1248.8C522.9 1231.7 542 1213.5 547.4 1208.3L557.3 1198.9L515.9 1157.4L474.5 1116H326H177.5L138.2 1156.6Z" fill="black"/>
</svg>
