<svg width="970" height="602" viewBox="0 0 970 602" fill="none" xmlns="http://www.w3.org/2000/svg">
<path d="M678.402 167.908C678.402 106.008 573.902 186.478 446.402 121.999C344.402 70.4158 514.326 32.8397 612.039 20.4996C738.539 2.96103 730.539 -11.3767 823.039 89.1051C1071.26 358.743 926.872 541.193 847.039 566.631C767.206 592.069 677.528 597.448 629.039 593.074C580.493 586.156 523.902 560.973 483.402 544.982" stroke="black" stroke-width="15" stroke-linecap="round" stroke-linejoin="round"/>
<path d="M675.902 164.297C568.068 157.42 320.302 145.727 191.902 153.981C31.4016 164.297 -4.59839 241.672 428.902 234.966C327.842 233.815 170.902 224.607 78.9016 234.966C-4.8034 246.747 -23.8065 281.361 73.4016 313.373C126.402 325.606 163.902 326.785 163.902 326.785M428.902 313.373C415.352 326.081 277.197 331.877 163.902 326.785M191.902 412.929C8.40161 406.739 60.2505 317.641 163.902 326.785M191.902 412.929L319.902 419.119L428.902 428.919C356.829 424.658 263.902 416.411 191.902 412.929ZM191.902 412.929C82.9016 412.929 73.4016 493.914 243.402 506.294C365.598 515.193 490.902 537.76 525.402 562.004" stroke="black" stroke-width="15" stroke-linecap="round" stroke-linejoin="round"/>
<path d="M585.402 249.925C652.402 284.688 678.302 434.903 661.902 541.371M845.402 381.979C774.068 366.848 627.602 314.817 612.402 227.745M612.402 55.9724C618.068 72.8229 624.002 110.651 602.402 127.157M773.402 97.7549C750.902 100.678 707.002 118.079 711.402 164.297M499.902 271.075C556.402 322.658 581.602 431.808 556.402 536.213" stroke="black" stroke-width="10" stroke-linecap="round" stroke-linejoin="round"/>
<path d="M288.902 261.851C285.614 268.238 281.011 284.751 288.902 299.706M279.038 252.505C274.693 262.319 267.977 286.994 275.868 307.183M257.902 261.851C260.602 265.434 264.383 278.021 257.902 299.706" stroke="black" stroke-width="5" stroke-linecap="round" stroke-linejoin="round"/>
<path d="M359.902 454.746C357.038 460.41 353.029 475.053 359.902 488.315M351.311 446.458C347.527 455.161 341.677 477.043 348.549 494.946M332.902 454.746C335.254 457.924 338.547 469.086 332.902 488.315" stroke="black" stroke-width="5" stroke-linecap="round" stroke-linejoin="round"/>
<path d="M341.902 177.731C339.144 183.033 335.283 196.742 341.902 209.157M333.629 169.971C329.985 178.119 324.352 198.604 330.97 215.365M315.902 177.731C318.167 180.705 321.338 191.155 315.902 209.157" stroke="black" stroke-width="5" stroke-linecap="round" stroke-linejoin="round"/>
<path d="M310.902 352.285C307.932 358.431 303.774 374.321 310.902 388.711M301.993 343.291C298.068 352.735 292.002 376.479 299.129 395.906M282.902 352.285C285.341 355.733 288.756 367.845 282.902 388.711" stroke="black" stroke-width="5" stroke-linecap="round" stroke-linejoin="round"/>
</svg>
