<svg width="325" height="343" viewBox="0 0 325 343" fill="none" xmlns="http://www.w3.org/2000/svg">
<path d="M277.833 8C274.798 8 224.528 8 47.73 8C15.946 28.1995 8 100.305 8 133.833V314.304L28.6927 335L49.3854 314.304L70.0781 335L90.7708 314.304L111.463 335L132.156 314.304L152.849 335L173.542 314.304L194.234 335L214.927 314.304L235.62 335V278.292M277.833 8C289.697 10.3456 314.086 38.7959 316.735 133.833C320.046 252.629 291.49 276.637 277.833 278.292M277.833 8C258.795 8 235.62 63.8797 235.62 133.833M277.833 278.292C277.011 278.392 237.275 276.637 235.62 133.833M277.833 278.292H235.62M235.62 133.833V278.292M43.1776 81.2646C40.9704 88.9911 36.9698 115.62 39.039 144.181M55.1793 40.2861C53.7998 41.8038 51.0408 45.6671 49.3854 54.3595M277.833 72.5721C263.348 70.0886 253.829 188.057 277.833 211.651C294.387 193.852 296.87 87.0595 277.833 72.5721Z" stroke="black" stroke-width="15" stroke-linecap="round" stroke-linejoin="round"/>
</svg>
