<svg width="970" height="602" viewBox="0 0 970 602" fill="none" xmlns="http://www.w3.org/2000/svg">
<path d="M291.5 167.908C291.5 106.008 396 186.478 523.5 121.999C625.5 70.4158 455.575 32.8397 357.863 20.4996C231.363 2.96103 239.363 -11.3767 146.863 89.1051C-101.356 358.743 43.0293 541.193 122.863 566.631C202.696 592.069 292.374 597.448 340.863 593.074C389.408 586.156 446 560.973 486.5 544.982" stroke="black" stroke-width="15" stroke-linecap="round" stroke-linejoin="round"/>
<path d="M294 164.297C401.833 157.419 649.6 145.727 778 153.981C938.5 164.297 974.5 241.672 541 234.966C642.059 233.815 799 224.607 891 234.966C974.705 246.747 993.708 281.361 896.5 313.373C843.5 325.606 806 326.785 806 326.785M541 313.373C554.55 326.081 692.705 331.877 806 326.785M778 412.929C961.5 406.739 909.651 317.641 806 326.785M778 412.929L650 419.119L541 428.919C613.073 424.658 706 416.41 778 412.929ZM778 412.929C887 412.929 896.5 493.914 726.5 506.294C604.304 515.193 479 537.76 444.5 562.004" stroke="black" stroke-width="15" stroke-linecap="round" stroke-linejoin="round"/>
<path d="M384.5 249.925C317.5 284.688 291.6 434.903 308 541.371M124.5 381.979C195.833 366.848 342.3 314.817 357.5 227.745M357.5 55.9724C351.833 72.8229 345.9 110.651 367.5 127.157M196.5 97.7549C219 100.678 262.9 118.079 258.5 164.297M470 271.075C413.5 322.658 388.3 431.808 413.5 536.213" stroke="black" stroke-width="10" stroke-linecap="round" stroke-linejoin="round"/>
<path d="M681 261.851C684.288 268.238 688.891 284.751 681 299.706M690.864 252.505C695.208 262.319 701.925 286.994 694.034 307.183M712 261.851C709.299 265.434 705.518 278.021 712 299.706" stroke="black" stroke-width="5" stroke-linecap="round" stroke-linejoin="round"/>
<path d="M610 454.746C612.864 460.41 616.873 475.053 610 488.315M618.591 446.458C622.375 455.161 628.225 477.043 621.352 494.946M637 454.746C634.648 457.924 631.355 469.086 637 488.315" stroke="black" stroke-width="5" stroke-linecap="round" stroke-linejoin="round"/>
<path d="M628 177.731C630.758 183.033 634.618 196.742 628 209.157M636.273 169.971C639.917 178.119 645.55 198.604 638.932 215.365M654 177.731C651.735 180.705 648.564 191.155 654 209.157" stroke="black" stroke-width="5" stroke-linecap="round" stroke-linejoin="round"/>
<path d="M659 352.285C661.97 358.431 666.127 374.321 659 388.711M667.909 343.291C671.833 352.735 677.9 376.479 670.773 395.906M687 352.285C684.561 355.733 681.145 367.845 687 388.711" stroke="black" stroke-width="5" stroke-linecap="round" stroke-linejoin="round"/>
</svg>
