<svg width="411" height="310" viewBox="0 0 411 310" fill="none" xmlns="http://www.w3.org/2000/svg">
<path d="M120 37.5L118.485 30.1547C117.89 30.2774 117.312 30.4719 116.764 30.734L120 37.5ZM263 8L266.71 1.48178C265.126 0.580576 263.269 0.286568 261.485 0.65467L263 8ZM403 179.5H410.5C410.5 178.8 410.402 178.104 410.209 177.431L403 179.5ZM371.41 242.5L377.713 246.565L377.713 246.565L371.41 242.5ZM347 275.5L350.591 282.084C351.398 281.644 352.116 281.06 352.712 280.361L347 275.5ZM211.5 221L207.941 214.398C207.756 214.498 207.576 214.605 207.4 214.72L211.5 221ZM164 108.5L171.394 109.757C171.897 106.798 170.587 103.823 168.064 102.196C165.541 100.57 162.29 100.604 159.803 102.285L164 108.5ZM182 141.793L180.96 149.22L180.96 149.22L182 141.793ZM354.499 119.604C354.557 115.462 351.246 112.058 347.104 112.001C342.962 111.943 339.558 115.254 339.501 119.396L354.499 119.604ZM169 301.5L167.867 308.914L168.618 309.029L169.377 308.991L169 301.5ZM178.83 264L171.938 261.042L171.938 261.042L178.83 264ZM47.6045 222.126L42.1188 227.24C42.4903 227.639 42.9042 227.995 43.3531 228.304L47.6045 222.126ZM8 160L1.61174 156.071C0.189668 158.383 0.127725 161.282 1.44977 163.653L8 160ZM34.3128 154.29L32.7221 146.96L32.7221 146.96L34.3128 154.29ZM34.3128 119.5L28.1422 115.237L28.1422 115.237L34.3128 119.5ZM28.6332 158.062C31.3385 161.199 36.0743 161.549 39.211 158.843C42.3477 156.138 42.6975 151.402 39.9923 148.266L28.6332 158.062ZM181.503 81.9071C178.414 84.6668 178.147 89.4081 180.907 92.4969C183.667 95.5858 188.408 95.8526 191.497 93.0929L181.503 81.9071ZM289.5 23.0896L285.787 29.6062C285.92 29.6815 286.054 29.7528 286.191 29.82L289.5 23.0896ZM364.5 66L371.481 63.2576C370.875 61.7172 369.778 60.4203 368.359 59.5688L364.5 66ZM386.5 122L393.709 119.931C393.644 119.703 393.567 119.478 393.481 119.258L386.5 122ZM146.5 129.5L142.275 123.303L126.082 134.344L145.509 136.934L146.5 129.5ZM161.5 131.5L160.509 138.934L173.497 140.666L168.412 128.59L161.5 131.5ZM157.5 122L164.412 119.09L160.853 110.636L153.275 115.803L157.5 122ZM121.515 44.8453L264.515 15.3453L261.485 0.65467L118.485 30.1547L121.515 44.8453ZM395.5 179.5C395.5 187.857 392.63 195.561 387.202 204.87C381.516 214.62 374.179 224.371 365.107 238.435L377.713 246.565C385.91 233.857 394.367 222.358 400.16 212.426C406.209 202.053 410.5 191.643 410.5 179.5H395.5ZM365.107 238.435C358.238 249.085 350.295 260.056 341.288 270.639L352.712 280.361C362.207 269.204 370.538 257.689 377.713 246.565L365.107 238.435ZM314.979 171.74C319.88 172.755 324.688 173.783 329.377 174.822L332.623 160.178C327.859 159.122 322.983 158.08 318.021 157.052L314.979 171.74ZM312.941 157.794L207.941 214.398L215.059 227.602L320.059 170.998L312.941 157.794ZM159.803 102.285L121.303 128.285L129.697 140.715L168.197 114.715L159.803 102.285ZM124.596 141.945C137.08 143.462 163.029 146.71 180.96 149.22L183.04 134.365C164.971 131.836 138.914 128.574 126.404 127.055L124.596 141.945ZM180.96 149.22C221.338 154.873 271.693 162.777 314.979 171.74L318.021 157.052C274.277 147.993 223.56 140.038 183.04 134.365L180.96 149.22ZM156.606 107.243C155.027 116.533 157.792 136.197 178.184 148.249L185.816 135.336C171.808 127.057 170.64 114.191 171.394 109.757L156.606 107.243ZM339.501 119.396C339.432 124.367 338.736 132.232 336.92 140.107L351.536 143.478C353.619 134.449 354.417 125.513 354.499 119.604L339.501 119.396ZM336.92 140.107C336.797 140.639 336.67 141.17 336.537 141.698L351.088 145.344C351.244 144.721 351.393 144.099 351.536 143.478L336.92 140.107ZM336.537 141.698C334.204 151.01 330.689 158.255 326.409 161.57L335.591 173.43C344.101 166.842 348.606 155.248 351.088 145.343L336.537 141.698ZM323.748 169.414C326.072 178.217 329.926 190.506 334.838 202.748C339.706 214.877 345.82 227.489 352.808 236.573L364.697 227.427C358.97 219.982 353.462 208.882 348.759 197.161C344.101 185.554 340.435 173.858 338.252 165.586L323.748 169.414ZM352.808 236.573C357.152 242.221 362.55 247.461 369.047 249.618L373.773 235.382C371.555 234.646 368.432 232.283 364.697 227.427L352.808 236.573ZM336.977 139.878C336.806 140.525 336.642 141.205 336.486 141.915L351.138 145.127C351.252 144.607 351.367 144.134 351.479 143.708L336.977 139.878ZM336.486 141.915C333.024 157.706 332.279 194.224 351.992 235.248L365.512 228.752C347.276 190.801 348.381 157.706 351.138 145.127L336.486 141.915ZM343.409 268.916C335.266 273.357 318.145 277.808 294.303 281.712C270.84 285.553 241.902 288.717 210.943 291.021L212.057 305.979C243.287 303.655 272.691 300.45 296.727 296.515C320.384 292.641 339.918 287.906 350.591 282.084L343.409 268.916ZM210.943 291.021C208.496 291.203 205.434 291.435 202.061 291.69L203.19 306.647C206.572 306.392 209.62 306.161 212.057 305.979L210.943 291.021ZM202.061 291.69C190.836 292.537 176.232 293.626 168.623 294.009L169.377 308.991C177.22 308.596 192.052 307.487 203.19 306.647L202.061 291.69ZM207.4 214.72C197.838 220.961 182.44 236.573 171.938 261.042L185.722 266.958C195.154 244.984 208.709 231.778 215.6 227.28L207.4 214.72ZM171.938 261.042C167.091 272.335 163.27 285.551 161.548 300.65L176.452 302.35C178 288.769 181.425 276.97 185.722 266.958L171.938 261.042ZM209.933 291.166C208.293 291.516 205.788 291.774 202.887 291.673L202.364 306.664C206.33 306.802 210.076 306.473 213.067 305.834L209.933 291.166ZM202.887 291.673C196.783 291.46 190.924 289.756 187.562 286.413C184.844 283.711 182.156 278.294 185.978 266.272L171.683 261.728C166.749 277.247 169.064 289.174 176.986 297.05C184.263 304.286 194.679 306.395 202.364 306.664L202.887 291.673ZM170.133 294.086C154.059 291.63 141.802 284.348 124.639 271.189C107.599 258.124 85.7484 239.268 51.856 215.947L43.3531 228.304C76.8561 251.358 97.7032 269.439 115.512 283.093C133.198 296.652 147.941 305.87 167.867 308.914L170.133 294.086ZM53.0903 217.011C37.3072 200.082 27.5946 179.737 14.5502 156.347L1.44977 163.653C13.8456 185.88 24.7282 208.586 42.1188 227.24L53.0903 217.011ZM9.59063 167.329L35.9034 161.619L32.7221 146.96L6.40937 152.671L9.59063 167.329ZM35.9034 161.619L127.091 141.829L123.909 127.171L32.7221 146.96L35.9034 161.619ZM53.3197 217.269C46.5166 209.263 37.9271 196.619 33.8553 184.728C31.8189 178.78 31.1403 173.671 31.8204 169.691C32.4394 166.068 34.206 163.071 38.136 160.742L30.4895 147.837C22.6195 152.501 18.3647 159.38 17.0346 167.165C15.7656 174.592 17.2105 182.421 19.6641 189.587C24.5721 203.921 34.4286 218.203 41.8894 226.982L53.3197 217.269ZM14.3883 163.929C23.6832 148.818 32.3796 135.492 40.4833 123.763L28.1422 115.237C19.8725 127.206 11.0313 140.757 1.61174 156.071L14.3883 163.929ZM40.4833 123.763C64.6451 88.7914 82.7061 70.2944 95.8171 59.9272C108.838 49.6313 116.898 47.2971 123.236 44.266L116.764 30.734C111.602 33.2029 101.247 36.5109 86.5134 48.1611C71.8701 59.7399 52.8375 79.4929 28.1422 115.237L40.4833 123.763ZM27.4274 116.526C25.5609 120.848 23.3742 127.8 22.7251 135.102C22.0982 142.156 22.7636 151.256 28.6332 158.062L39.9923 148.266C38.1121 146.086 37.163 142.092 37.6662 136.43C38.1474 131.016 39.8355 125.629 41.1981 122.474L27.4274 116.526ZM191.497 93.0929C204.215 81.7297 226.046 61.3609 243.814 42.6669L232.942 32.3331C215.552 50.6298 194.043 70.7031 181.503 81.9071L191.497 93.0929ZM243.814 42.6669C244.409 42.0408 245 41.4163 245.586 40.794L234.664 30.5124C234.095 31.1169 233.521 31.7239 232.942 32.3331L243.814 42.6669ZM245.586 40.7939C255.565 30.1926 264.499 19.816 269.374 11.952L256.626 4.04795C252.619 10.5096 244.624 19.9313 234.664 30.5125L245.586 40.7939ZM259.29 14.5182C268.95 20.0159 277.761 25.0333 285.787 29.6062L293.213 16.573C285.184 11.9989 276.371 6.98042 266.71 1.48178L259.29 14.5182ZM286.191 29.82C313.364 43.1812 331.353 53.466 342.76 60.5237C348.46 64.0509 352.527 66.7789 355.284 68.6911C356.666 69.649 357.727 70.4085 358.533 70.9849C359.167 71.4382 360.034 72.067 360.641 72.4312L368.359 59.5688C368.421 59.6062 368.246 59.4898 367.259 58.7843C366.445 58.2019 365.309 57.3888 363.832 56.3649C360.874 54.3136 356.589 51.4414 350.652 47.7682C338.785 40.4252 320.364 29.9084 292.809 16.3592L286.191 29.82ZM243.961 42.5072C244.403 42.0149 244.898 41.4898 245.444 40.9402L234.805 30.3662C234.088 31.0882 233.416 31.7996 232.794 32.4928L243.961 42.5072ZM245.444 40.9402C249.716 36.6426 256.435 31.5198 263.931 28.7127C271.302 25.9527 278.79 25.6168 285.785 29.6051L293.215 16.5741C281.236 9.74534 268.842 10.8566 258.671 14.6653C248.625 18.427 240.144 24.9945 234.805 30.3662L245.444 40.9402ZM357.519 68.7424L379.519 124.742L393.481 119.258L371.481 63.2576L357.519 68.7424ZM379.291 124.069L395.791 181.569L410.209 177.431L393.709 119.931L379.291 124.069ZM145.509 136.934L160.509 138.934L162.491 124.066L147.491 122.066L145.509 136.934ZM168.412 128.59L164.412 119.09L150.588 124.91L154.588 134.41L168.412 128.59ZM153.275 115.803L142.275 123.303L150.725 135.697L161.725 128.197L153.275 115.803Z" fill="black"/>
</svg>
