<svg width="559" height="602" viewBox="0 0 559 602" fill="none" xmlns="http://www.w3.org/2000/svg">
<path d="M244.539 156.852C245.362 161.461 238.165 174.125 232.539 183.852M134.864 122.116C136.832 108.117 137.923 95.7493 137.039 86.6157C132.239 37.0157 177.706 21.6159 201.039 20.116C327.539 3.11569 319.539 -10.7819 412.039 86.6157C660.258 347.977 515.872 524.828 436.039 549.485C356.206 574.142 266.528 579.356 218.039 575.116M134.864 122.116C123.475 203.144 66.2144 333.58 209.039 213.352C216.59 203.839 224.494 197.758 232.539 183.852M134.864 122.116C75.8981 137.352 -19.9016 183.828 49.6013 251.116M232.539 183.852C290.457 195.352 313.539 233.616 289.539 259.116C284.88 264.066 278.538 268.193 271.295 271.616M49.6013 251.116C52.323 253.751 55.2981 256.418 58.5389 259.116L201.039 286.616C217.322 286.111 248.691 282.298 271.295 271.616M49.6013 251.116C16.9138 283.616 -27.0611 353.916 58.5389 375.116M58.5389 375.116C10.5389 375.116 -31.1611 461.516 72.0389 491.116M58.5389 375.116C86.07 381.934 115.422 385.509 144.039 386.035C189.712 386.875 233.514 379.951 265.057 366.06M271.295 271.616C288.877 267.449 321.639 271.116 312.039 319.116C308.054 339.039 290.563 354.827 265.057 366.06M72.0389 491.116C47.0389 500.782 10.8388 531.116 66.0388 575.116C99.6835 601.934 171.132 597.791 218.039 575.116M72.0389 491.116C125.555 489.749 211.677 481.232 265.057 459.264M265.057 366.06C289.035 369.729 307.549 381.156 312.039 405.616C316.321 428.947 296.295 446.409 265.057 459.264M265.057 459.264C273.551 459.048 312.039 465.852 312.039 510.352C312.039 554.852 267.331 551.287 218.039 575.116" stroke="black" stroke-width="15" stroke-linecap="round" stroke-linejoin="round"/>
<path d="M223.29 78.3516C237.457 86.0182 262.39 109.752 248.79 143.352C276.39 116.152 248.957 76.3516 231.79 59.8516" stroke="black" stroke-width="10" stroke-linecap="round" stroke-linejoin="round"/>
<path d="M353.039 93.3516C350.372 113.185 338.239 153.652 311.039 156.852M327.539 102.352C324.539 118.185 319.039 142.352 297.039 142.352M353.039 206.352C351.872 253.018 372.739 351.852 465.539 373.852M414.039 506.852C420.039 481.518 416.239 414.152 353.039 347.352" stroke="black" stroke-width="10" stroke-linecap="round" stroke-linejoin="round"/>
</svg>
