<svg width="559" height="602" viewBox="0 0 559 602" fill="none" xmlns="http://www.w3.org/2000/svg">
<path d="M314.363 156.852C313.54 161.461 320.736 174.125 326.363 183.852M424.038 122.116C422.07 108.117 420.979 95.7493 421.863 86.6157C426.663 37.0157 381.196 21.6159 357.863 20.116C231.363 3.11569 239.363 -10.7819 146.863 86.6157C-101.356 347.977 43.0293 524.828 122.863 549.485C202.696 574.142 292.374 579.356 340.863 575.116M424.038 122.116C435.427 203.144 492.687 333.58 349.863 213.352C342.311 203.839 334.407 197.758 326.363 183.852M424.038 122.116C483.003 137.352 578.803 183.828 509.3 251.116M326.363 183.852C268.445 195.352 245.363 233.616 269.363 259.116C274.021 264.066 280.364 268.193 287.606 271.616M509.3 251.116C506.579 253.751 503.604 256.418 500.363 259.116L357.863 286.616C341.58 286.111 310.211 282.298 287.606 271.616M509.3 251.116C541.988 283.616 585.963 353.916 500.363 375.116M500.363 375.116C548.363 375.116 590.063 461.516 486.863 491.116M500.363 375.116C472.832 381.934 443.48 385.509 414.863 386.035C369.19 386.875 325.388 379.951 293.844 366.06M287.606 271.616C270.025 267.449 237.263 271.116 246.863 319.116C250.847 339.039 268.338 354.827 293.844 366.06M486.863 491.116C511.863 500.782 548.063 531.116 492.863 575.116C459.218 601.934 387.77 597.791 340.863 575.116M486.863 491.116C433.347 489.749 347.225 481.232 293.844 459.264M293.844 366.06C269.867 369.729 251.352 381.156 246.863 405.616C242.58 428.947 262.606 446.409 293.844 459.264M293.844 459.264C285.35 459.048 246.863 465.852 246.863 510.352C246.863 554.852 291.571 551.287 340.863 575.116" stroke="black" stroke-width="15" stroke-linecap="round" stroke-linejoin="round"/>
<path d="M335.611 78.3515C321.445 86.0182 296.511 109.752 310.111 143.352C282.511 116.152 309.945 76.3515 327.111 59.8515" stroke="black" stroke-width="10" stroke-linecap="round" stroke-linejoin="round"/>
<path d="M205.863 93.3515C208.529 113.185 220.663 153.652 247.863 156.852M231.363 102.352C234.363 118.185 239.863 142.352 261.863 142.352M205.863 206.352C207.029 253.018 186.163 351.852 93.3627 373.852M144.863 506.852C138.863 481.518 142.663 414.152 205.863 347.352" stroke="black" stroke-width="10" stroke-linecap="round" stroke-linejoin="round"/>
</svg>
