<svg width="824" height="602" viewBox="0 0 824 602" fill="none" xmlns="http://www.w3.org/2000/svg">
<path d="M303.504 150.653C338.704 160.336 434.141 238.907 456.641 281.773C467.857 300.015 476.793 321.886 481.495 342.289M401.004 384.182C368.641 344.811 337.622 290.85 279.985 258.574M401.004 384.182C355.331 385.029 311.529 378.046 279.985 364.035C256.008 367.736 237.493 379.261 233.004 403.931C228.721 427.463 248.747 445.076 279.985 458.042M401.004 384.182C477.739 437.331 493.56 394.647 481.495 342.289M486.504 373.169C534.504 373.169 576.204 460.313 473.004 490.167M473.004 490.167C498.004 499.917 534.204 530.512 479.004 574.891C445.359 601.94 373.911 597.761 327.004 574.891M473.004 490.167C419.488 488.789 333.366 480.199 279.985 458.042M279.985 458.042C271.491 457.824 233.004 464.686 233.004 509.569C233.004 554.452 277.712 550.857 327.004 574.891M327.004 574.891C278.515 579.167 188.837 573.909 109.003 549.039C29.1701 524.17 -58.7217 273.083 83.6409 157.713C107.02 143.297 187.051 114.463 320.141 114.463C367.308 109.588 479.668 88.3288 559.5 63.3385C659 32.1913 623.5 38.7472 706 12.5234C789.334 -13.9655 818.141 83.1959 679.641 114.463L523.141 169.312C397.494 214.196 504.106 242.79 597.5 232.401C665.5 224.836 578.859 234.081 726 217.776C849.359 210.379 888 298.465 559.5 322.671L481.495 342.289" stroke="black" stroke-width="15" stroke-linecap="round" stroke-linejoin="round"/>
<path d="M192.004 202.951C193.17 250.02 172.304 349.704 79.5035 371.893M131.004 506.039C125.004 480.487 128.804 412.54 192.004 345.165" stroke="black" stroke-width="10" stroke-linecap="round" stroke-linejoin="round"/>
<path d="M586.022 260.287C589.225 265.994 594.576 281.11 590.36 295.922M592.363 250.571C596.752 259.405 604.627 282.009 601.011 301.748M609.317 257.402C607.698 261.027 606.299 273.227 613.655 293.037" stroke="black" stroke-width="5" stroke-linecap="round" stroke-linejoin="round"/>
<path d="M520.975 101.465C525.003 106.014 532.545 118.658 530.488 132.85M525.895 91.4747C531.563 98.6241 542.714 117.556 541.973 136.088M543.82 94.421C542.73 98.0052 543.107 109.3 553.333 125.806" stroke="black" stroke-width="5" stroke-linecap="round" stroke-linejoin="round"/>
</svg>
