<svg width="824" height="602" viewBox="0 0 824 602" fill="none" xmlns="http://www.w3.org/2000/svg">
<path d="M520.398 150.653C485.198 160.336 389.761 238.907 367.261 281.773C356.044 300.015 347.108 321.886 342.407 342.289M422.898 384.182C455.261 344.811 486.279 290.85 543.916 258.574M422.898 384.182C468.571 385.029 512.373 378.046 543.916 364.035C567.894 367.736 586.409 379.261 590.898 403.931C595.18 427.463 575.155 445.076 543.916 458.042M422.898 384.182C346.163 437.331 330.342 394.647 342.407 342.289M337.398 373.169C289.398 373.169 247.698 460.313 350.898 490.167M350.898 490.167C325.898 499.917 289.698 530.512 344.898 574.891C378.543 601.94 449.991 597.761 496.898 574.891M350.898 490.167C404.414 488.789 490.536 480.199 543.916 458.042M543.916 458.042C552.41 457.824 590.898 464.686 590.898 509.569C590.898 554.452 546.19 550.857 496.898 574.891M496.898 574.891C545.387 579.167 635.065 573.909 714.898 549.039C794.732 524.17 882.623 273.083 740.261 157.713C716.882 143.297 636.851 114.463 503.761 114.463C456.594 109.588 344.234 88.3288 264.402 63.3385C164.902 32.1913 200.402 38.7472 117.902 12.5234C34.5679 -13.9655 5.76089 83.1959 144.261 114.463L300.761 169.312C426.407 214.196 319.795 242.79 226.402 232.401C158.402 224.836 245.042 234.081 97.9016 217.776C-25.4576 210.379 -64.0983 298.465 264.402 322.671L342.407 342.289" stroke="black" stroke-width="15" stroke-linecap="round" stroke-linejoin="round"/>
<path d="M631.898 202.951C630.731 250.02 651.598 349.704 744.398 371.893M692.898 506.039C698.898 480.487 695.098 412.54 631.898 345.165" stroke="black" stroke-width="10" stroke-linecap="round" stroke-linejoin="round"/>
<path d="M237.879 260.287C234.677 265.994 229.326 281.11 233.541 295.922M231.539 250.571C227.149 259.405 219.274 282.009 222.89 301.748M214.585 257.403C216.204 261.027 217.603 273.227 210.247 293.037" stroke="black" stroke-width="5" stroke-linecap="round" stroke-linejoin="round"/>
<path d="M302.926 101.465C298.898 106.014 291.357 118.658 293.413 132.85M298.007 91.4747C292.339 98.6241 281.188 117.556 281.929 136.088M280.082 94.421C281.172 98.0052 280.795 109.3 270.569 125.806" stroke="black" stroke-width="5" stroke-linecap="round" stroke-linejoin="round"/>
</svg>
