<svg width="360" height="318" viewBox="0 0 360 318" fill="none" xmlns="http://www.w3.org/2000/svg">
<path d="M123.331 99.5L127.76 93.4477L120.778 88.3378L116.711 95.9746L123.331 99.5ZM162.274 128L157.844 134.052L162.189 137.232L166.592 134.132L162.274 128ZM276.606 47.5L272.787 41.0455L272.531 41.1967L272.288 41.3676L276.606 47.5ZM349 61.5L353.247 67.6818L359.531 63.3646L355.111 57.1522L349 61.5ZM209.205 159L204.794 152.934L196.362 159.065L204.856 165.11L209.205 159ZM349 258.5L354.931 263.09L359.709 256.916L353.349 252.39L349 258.5ZM274.11 270L269.741 276.096L269.882 276.197L270.028 276.292L274.11 270ZM162.274 191.5L166.531 185.326L162.195 182.335L157.91 185.4L162.274 191.5ZM123.83 219L117.476 222.984L121.71 229.738L128.194 225.1L123.83 219ZM96.8697 193.5L92.46 187.433L80.1687 196.368L94.7362 200.69L96.8697 193.5ZM145.299 159L149.544 165.183L158.448 159.068L149.608 152.862L145.299 159ZM96.8697 125L93.1635 118.48L82.8663 124.333L92.5602 131.138L96.8697 125ZM92.3653 69.5C92.3653 82.2129 82.0775 92.5 69.41 92.5V107.5C90.3825 107.5 107.365 90.4765 107.365 69.5H92.3653ZM69.41 92.5C56.7424 92.5 46.4546 82.2129 46.4546 69.5H31.4546C31.4546 90.4765 48.4374 107.5 69.41 107.5V92.5ZM46.4546 69.5C46.4546 56.7871 56.7424 46.5 69.41 46.5V31.5C48.4374 31.5 31.4546 48.5235 31.4546 69.5H46.4546ZM69.41 46.5C82.0775 46.5 92.3653 56.7871 92.3653 69.5H107.365C107.365 48.5235 90.3825 31.5 69.41 31.5V46.5ZM123.32 69.5C123.32 99.3337 99.1732 123.5 69.41 123.5V138.5C107.478 138.5 138.32 107.597 138.32 69.5H123.32ZM69.41 123.5C39.6467 123.5 15.5 99.3337 15.5 69.5H0.5C0.5 107.597 31.3417 138.5 69.41 138.5V123.5ZM15.5 69.5C15.5 39.6663 39.6467 15.5 69.41 15.5V0.5C31.3417 0.5 0.5 31.4027 0.5 69.5H15.5ZM69.41 15.5C99.1732 15.5 123.32 39.6663 123.32 69.5H138.32C138.32 31.4027 107.478 0.5 69.41 0.5V15.5ZM118.902 105.552L157.844 134.052L166.703 121.948L127.76 93.4477L118.902 105.552ZM166.592 134.132L280.924 53.6324L272.288 41.3676L157.956 121.868L166.592 134.132ZM280.426 53.9545C286.754 50.2096 297.736 46.2346 309.432 46.7429C320.752 47.2349 332.962 51.8954 342.889 65.8478L355.111 57.1522C342.271 39.1046 325.607 32.4318 310.083 31.7571C294.935 31.0987 281.103 36.1238 272.787 41.0455L280.426 53.9545ZM344.753 55.3182C262.062 112.127 217.027 144.039 204.794 152.934L213.616 165.066C225.68 156.294 270.58 124.473 353.247 67.6818L344.753 55.3182ZM204.856 165.11L344.651 264.61L353.349 252.39L213.554 152.89L204.856 165.11ZM343.069 253.91C338.684 259.576 329.967 267.113 318.637 270.639C307.659 274.056 293.838 273.857 278.191 263.708L270.028 276.292C289.53 288.943 307.995 289.661 323.095 284.961C337.844 280.371 348.998 270.757 354.931 263.09L343.069 253.91ZM278.479 263.904C237.686 234.666 186.852 199.337 166.531 185.326L158.016 197.674C178.303 211.663 229.053 246.934 269.741 276.096L278.479 263.904ZM157.91 185.4L119.467 212.9L128.194 225.1L166.637 197.6L157.91 185.4ZM130.184 215.016C127.709 211.068 123.365 205.084 118.144 199.594C113.126 194.318 106.373 188.497 99.0032 186.31L94.7362 200.69C98.1506 201.703 102.631 205.049 107.274 209.931C111.713 214.599 115.457 219.765 117.476 222.984L130.184 215.016ZM101.279 199.567C126.004 181.595 143.788 169.135 149.544 165.183L141.053 152.817C135.16 156.865 117.263 169.405 92.46 187.433L101.279 199.567ZM149.608 152.862L101.179 118.862L92.5602 131.138L140.989 165.138L149.608 152.862ZM100.576 131.52C104.099 129.518 109.534 125.845 114.965 121.07C120.354 116.331 126.162 110.139 129.951 103.025L116.711 95.9746C114.109 100.861 109.765 105.669 105.061 109.805C100.398 113.905 95.7983 116.982 93.1635 118.48L100.576 131.52ZM92.3653 248.5C92.3653 261.213 82.0775 271.5 69.41 271.5V286.5C90.3825 286.5 107.365 269.476 107.365 248.5H92.3653ZM69.41 271.5C56.7424 271.5 46.4546 261.213 46.4546 248.5H31.4546C31.4546 269.476 48.4374 286.5 69.41 286.5V271.5ZM46.4546 248.5C46.4546 235.787 56.7424 225.5 69.41 225.5V210.5C48.4374 210.5 31.4546 227.524 31.4546 248.5H46.4546ZM69.41 225.5C82.0775 225.5 92.3653 235.787 92.3653 248.5H107.365C107.365 227.524 90.3825 210.5 69.41 210.5V225.5ZM123.32 248.5C123.32 278.334 99.1732 302.5 69.41 302.5V317.5C107.478 317.5 138.32 286.597 138.32 248.5H123.32ZM69.41 302.5C39.6467 302.5 15.5 278.334 15.5 248.5H0.5C0.5 286.597 31.3417 317.5 69.41 317.5V302.5ZM15.5 248.5C15.5 218.666 39.6467 194.5 69.41 194.5V179.5C31.3417 179.5 0.5 210.403 0.5 248.5H15.5ZM69.41 194.5C99.1732 194.5 123.32 218.666 123.32 248.5H138.32C138.32 210.403 107.478 179.5 69.41 179.5V194.5Z" fill="black"/>
</svg>
